<svg width="61" height="46" viewBox="0 0 61 46" fill="none" xmlns="http://www.w3.org/2000/svg">
<path d="M14.2693 38.9444C13.3127 38.9993 12.8551 38.7847 12.0339 38.3479C13.2488 38.4853 14.4292 38.5451 15.6085 38.1502C19.8334 36.7357 25.1318 31.1862 27.0797 27.2166C27.3131 26.741 28.2349 24.9527 28.093 24.5366C27.8434 24.3947 25.5686 25.0792 25.0968 25.1762C20.4434 26.1332 14.738 26.7426 10.4473 24.2993C8.62072 23.2593 8.42324 20.9494 9.69485 19.3554C10.5487 18.2858 11.6416 17.5212 12.8328 16.8622C17.5748 13.7591 27.6768 13.6793 29.3633 20.4061C29.4801 20.872 29.4904 21.5028 29.5878 22.009C30.3111 22.0281 31.5306 21.3886 32.229 21.0981C36.0394 19.4732 39.7128 17.5442 43.2136 15.3297L47.7143 12.4436C48.7151 11.8064 49.9405 11.036 51.0169 10.5411C51.6443 10.2526 52.2076 10.2804 52.8771 10.3659C53.2341 10.1246 53.2486 10.067 53.4339 9.68757C52.9001 9.67331 51.7534 9.89471 51.1707 9.99358C50.4056 10.0779 49.7189 10.3133 48.9605 10.4622C46.8566 10.8686 44.7435 11.4828 42.5886 11.5109C42.2318 11.5156 40.8859 11.2014 41.2455 10.5709C41.4324 10.2434 41.8622 10.0961 42.2158 10.0191C42.9922 9.8498 43.8012 9.79565 44.5811 9.63234C46.8575 9.20604 49.1077 8.70906 51.4107 8.42614C52.3708 8.30814 53.9348 7.91253 54.8352 8.33749C54.9539 8.39352 55.2184 8.70848 55.2026 8.83456C55.079 9.82205 54.1298 10.5587 53.6113 11.3689C53.4313 11.6482 53.2041 11.8931 53.0236 12.1517C52.2976 13.192 51.5246 14.1791 50.8636 15.2624C50.5763 15.7332 50.2068 16.1693 49.9243 16.6522C49.4931 17.3892 49.0156 18.0988 48.558 18.8188C47.9772 19.7739 47.4332 20.7604 46.7375 21.6423C46.6124 21.8008 46.5856 21.7907 46.4058 21.8086C46.2616 21.7469 46.3016 21.7869 46.2372 21.6668C46.3029 21.4647 46.4936 21.4013 46.6004 21.2137C47.7946 19.1156 48.8965 16.9713 50.12 14.8869C50.3669 14.4662 51.8382 12.2883 51.7517 12.0757C51.6427 12.0698 51.5459 12.1115 51.456 12.1696C45.3009 16.1452 39.1432 20.2523 32.2834 22.9339C31.3823 23.2862 30.3646 23.753 29.4127 23.9723C29.1184 24.8104 28.8017 25.8217 28.4332 26.6106C27.2659 29.1096 25.5061 31.3357 23.5818 33.2935C23.2972 33.5831 23.0032 33.9172 22.7048 34.1886C20.4652 36.225 17.3602 38.6556 14.2693 38.9444ZM28.4596 22.4592C28.6108 21.1854 28.2056 19.9421 27.4531 18.9096C25.8246 16.6751 22.7397 16.1165 20.1096 16.1041C17.4218 16.2547 15.2911 16.9471 13.0356 18.4199C5.97339 23.0309 14.7809 24.6789 18.7109 24.3765C21.4231 24.2275 26.0024 23.5587 28.4596 22.4592Z" fill="black"/>
</svg>
