<svg width="36" height="8" viewBox="0 0 36 8" fill="none" xmlns="http://www.w3.org/2000/svg">
<path d="M0.0129436 2.23292C0.248017 2.195 0.479598 2.18282 0.720608 2.20987C0.773707 2.21594 0.768302 2.25066 0.790926 2.257C0.836179 2.26881 0.900569 2.23314 0.911822 2.23349C0.973174 2.23489 0.947637 2.29516 0.955817 2.29776C1.04651 2.32533 1.01941 2.25496 1.10807 2.251C1.22127 2.24575 1.36481 2.2626 1.50154 2.27021C1.55079 2.27309 1.52824 2.31888 1.62902 2.31806C1.70374 2.31761 1.92472 2.27142 2.03139 2.33128C2.03152 2.35266 2.01762 2.37582 2.01113 2.39767C2.15553 2.31304 2.21954 2.31891 2.42105 2.34681C2.45395 2.35124 2.48638 2.31564 2.54589 2.33097C2.60671 2.34636 2.60448 2.4027 2.72071 2.40558C2.76215 2.40647 2.78851 2.3675 2.85383 2.3678C3.0344 2.36838 3.37877 2.42836 3.52827 2.43465C3.82048 2.44703 3.98946 2.38433 4.24271 2.41569C4.26272 2.41802 4.21732 2.46022 4.25408 2.4622C4.29117 2.46419 4.33207 2.40769 4.34138 2.40661C4.44567 2.39494 4.64416 2.47841 4.70068 2.47078C4.83563 2.45201 4.70296 2.42249 4.89175 2.41734C5.04595 2.4129 5.24652 2.47627 5.41848 2.50538C5.44026 2.50928 5.46142 2.51255 5.48172 2.51493C5.67949 2.53808 5.7492 2.43099 5.901 2.54968C6.42881 2.55921 6.97631 2.57196 7.50551 2.58246C7.50328 2.60512 7.50079 2.62779 7.49825 2.65044C7.54141 2.63604 7.58475 2.62163 7.62826 2.60741C7.62124 2.62411 7.61456 2.64085 7.60755 2.65738C7.80913 2.5983 7.98236 2.56997 8.21765 2.59518C8.22224 2.59566 8.20875 2.64057 8.21253 2.64185C8.26546 2.65204 8.3256 2.61903 8.37022 2.62862C8.47897 2.65164 8.66454 2.75622 8.58531 2.63289C8.84494 2.66589 9.14881 2.63445 9.39541 2.66553C9.50244 2.67894 9.53268 2.75152 9.58425 2.75726C9.63581 2.76296 9.61158 2.70065 9.62976 2.69885C9.73753 2.68853 9.91608 2.69663 9.93289 2.76605C9.95562 2.73924 9.97967 2.71214 10.0028 2.68517C9.98614 2.76103 10.3292 2.74017 10.4144 2.7447C10.4304 2.74554 10.4315 2.77906 10.4436 2.7791C10.5786 2.77903 10.6134 2.72764 10.7303 2.71386C10.7713 2.70899 10.706 2.76595 10.8119 2.74379C10.8212 2.74185 10.8178 2.68873 10.9438 2.69302C11.1438 2.69981 11.5238 2.69073 11.7632 2.72444C11.7825 2.72709 11.7218 2.78297 11.8107 2.7723C11.8429 2.76853 11.8288 2.72705 11.9066 2.72916C12.2081 2.73698 12.5327 2.79443 12.8414 2.76509C12.8287 2.81101 12.717 2.85944 12.8834 2.83566C12.91 2.83171 12.8916 2.78975 12.9035 2.78859C13.0001 2.7797 13.0828 2.81189 13.1879 2.79935C13.219 2.79555 13.2277 2.76334 13.2661 2.75687C13.3228 2.74722 13.3462 2.7943 13.4124 2.77675C13.5159 2.74911 13.5331 2.70574 13.6579 2.79587C14.381 2.81352 15.1005 2.81247 15.8193 2.87385C16.0281 2.85603 16.2217 2.83486 16.4387 2.83256C16.5026 2.83192 16.5129 2.89106 16.6154 2.87495C16.6384 2.87143 16.8033 2.81374 16.8232 2.93322C16.8688 2.92447 16.8975 2.92507 16.9366 2.92004C16.9077 2.90164 16.8778 2.88302 16.8501 2.8645C17.0138 2.88887 17.1494 2.85145 17.2955 2.83645C17.4031 2.82549 17.3254 2.87388 17.3913 2.87093C17.4572 2.86816 17.4874 2.85769 17.5675 2.92139C17.6344 2.85319 17.6756 2.90394 17.7944 2.90977C17.8071 2.91037 17.882 2.88555 17.9437 2.89306C17.988 2.89847 17.9997 2.94277 18.0705 2.93833C18.0821 2.93769 18.2331 2.88833 18.2808 2.88496C18.3549 2.87958 18.4704 2.93974 18.4847 2.9409C18.6916 2.95775 18.7745 2.90497 18.9189 3.00131C18.9506 2.94802 19.0748 2.92039 19.174 2.92903C19.2988 2.93992 19.5477 3.05953 19.5862 2.94338C19.73 3.00059 19.7153 2.9678 19.8876 2.97265C20.0434 2.97694 20.4596 3.03616 20.5864 3.03407C20.7136 3.03213 20.654 2.96475 20.7047 2.95778C20.7876 2.94615 20.7414 2.99275 20.7978 2.99402C20.957 2.99748 21.0985 2.99319 21.2516 2.9775C21.2587 3.01159 21.2663 3.04587 21.2736 3.07997C21.2819 3.06898 21.2902 3.05798 21.2985 3.04699C21.3313 3.04847 21.3681 3.04907 21.3984 3.05115C21.1481 2.89384 21.6432 3.07069 21.7973 3.0799C21.9257 3.0875 22.1407 3.02464 22.2805 3.01439C22.3144 3.01186 22.2899 3.04756 22.2969 3.04696C22.3783 3.03943 22.3929 3.01497 22.5037 3.02234C22.5624 3.02632 22.6206 3.0742 22.6775 3.07711C23.0925 3.09812 23.5005 3.0669 23.9147 3.07719C23.9859 3.07895 24.0449 3.13704 24.1043 3.14044C24.1891 3.14529 24.2442 3.10155 24.3233 3.10379C24.4018 3.10603 24.5138 3.16492 24.5691 3.15862C24.6238 3.15246 24.5328 3.09603 24.6317 3.11427C24.677 3.12265 24.595 3.15906 24.6513 3.16237C24.8285 3.17278 25.0697 3.133 25.2579 3.18756C25.25 3.17546 25.2391 3.16443 25.2294 3.15277C25.4298 3.16504 25.602 3.20006 25.8046 3.21204C25.8773 3.21639 26.0088 3.18687 26.0791 3.18979C26.1494 3.19272 26.1797 3.23153 26.2355 3.23477C26.2584 3.23619 26.2507 3.20218 26.2661 3.20347C26.4543 3.21983 26.5669 3.28431 26.7684 3.2856C27.0297 3.28715 27.3143 3.29028 27.5786 3.29307C28.0721 3.29902 28.5493 3.30583 29.039 3.31395C29.0689 3.31444 29.0909 3.27153 29.1346 3.26706C29.2053 3.26029 29.2067 3.29919 29.216 3.30099C29.2762 3.31235 29.2534 3.27534 29.334 3.27913C29.5076 3.28729 29.7955 3.33304 29.9671 3.33889C30.3776 3.35305 30.7088 3.33613 31.113 3.3415C31.1411 3.34171 31.1193 3.39251 31.1676 3.39592C31.522 3.42176 31.5943 3.37587 32.031 3.41759C32.4612 3.45863 33.2849 3.54918 33.7975 3.60964C33.7975 3.60976 33.7975 3.60988 33.7975 3.61C33.9675 3.53055 34.1757 3.5776 34.3405 3.67212C33.3169 3.78445 32.3801 3.62337 31.3207 3.56902C30.2017 3.5142 29.009 3.63119 27.8826 3.5595C27.7768 3.55276 27.736 3.49629 27.6445 3.50389C27.629 3.50517 27.6671 3.54897 27.6195 3.55124C27.6023 3.55202 27.585 3.5527 27.5677 3.55327C26.9449 3.57541 26.2881 3.45872 25.6734 3.4609C25.5057 3.46159 25.4772 3.50753 25.3274 3.51393C25.3546 3.49275 25.3726 3.4702 25.3964 3.44872C24.7204 3.35335 24.0359 3.35887 23.3509 3.32406C23.3198 3.3224 23.3175 3.27631 23.2849 3.27342C23.2196 3.26747 23.155 3.31574 23.0974 3.31539C23.0225 3.3149 23.012 3.27793 22.9437 3.27786C22.9105 3.27789 22.9192 3.31338 22.8471 3.30481C22.8411 3.30408 22.8384 3.26708 22.7901 3.27011C22.6582 3.27853 22.3833 3.29968 22.2747 3.30506C22.1354 3.3119 22.0251 3.25241 21.9723 3.24693C21.8295 3.23215 21.8304 3.28911 21.7087 3.28485C20.8479 3.25492 20.0261 3.16188 19.1437 3.13254C19.0884 3.13069 18.8813 3.18708 18.7787 3.18109C18.7444 3.1789 18.5646 3.15612 18.538 3.15385C18.4292 3.14489 18.3362 3.10347 18.2762 3.09342C18.1599 3.07382 18.0273 3.12922 17.9635 3.13308C17.8512 3.13993 17.6534 3.12549 17.6065 3.12239C17.4935 3.11488 17.5333 3.0422 17.4515 3.05675C17.4274 3.06111 17.4506 3.11862 17.3661 3.11582C17.2952 3.11328 17.2679 3.06965 17.2198 3.06037C17.1717 3.05113 17.0807 3.1142 17.0506 3.11155C16.8933 3.09713 16.8249 3.05158 16.6534 3.04372C16.5111 3.03732 15.851 3.04603 15.7959 3.05981C15.5485 3.12127 15.9578 3.10341 15.9808 3.10651C16.1049 3.12407 16.0858 3.15012 16.2117 3.10329C16.3178 3.26388 16.7126 3.03219 16.8057 3.22163C16.9123 3.10101 16.9964 3.16636 17.1037 3.19486C17.2519 3.23426 17.1405 3.15824 17.2495 3.16133C17.2925 3.16262 17.415 3.22306 17.4797 3.21735C17.5445 3.21161 17.5731 3.16932 17.6595 3.1698C17.8136 3.17048 17.9374 3.19478 18.0654 3.25085C18.0899 3.22876 18.1128 3.20661 18.137 3.18451C18.2256 3.2121 18.3146 3.23954 18.4031 3.26696C18.3895 3.2465 18.3759 3.22586 18.3622 3.2054C18.3885 3.20337 18.4148 3.20151 18.441 3.19966C18.5269 3.23262 18.6089 3.26324 18.6976 3.29734C18.9449 3.18994 18.8709 3.28761 19.0055 3.30719C19.1399 3.32677 19.2202 3.26249 19.3242 3.26566C19.4649 3.26992 19.5302 3.26377 19.6719 3.27338C19.754 3.27892 19.891 3.34824 19.7802 3.24204C20.0359 3.24255 20.3897 3.22612 20.6171 3.27553C20.6843 3.28997 20.593 3.31908 20.6044 3.32348C20.6612 3.34442 20.7112 3.29385 20.77 3.30338C20.8668 3.31921 21.0596 3.36662 21.1366 3.37889C21.2481 3.39662 21.4255 3.33509 21.4435 3.33076C21.5444 3.30678 21.569 3.36389 21.6012 3.36113C21.7865 3.34507 21.8279 3.32292 21.8817 3.44346C21.9312 3.39391 22.133 3.31473 22.1776 3.40264C22.182 3.32484 22.3443 3.34374 22.4484 3.32796C22.4666 3.35118 22.4851 3.37428 22.5032 3.39767C22.722 3.26594 23.1372 3.38222 23.4179 3.40905C23.4249 3.40964 23.4395 3.35174 23.481 3.36642C23.4836 3.36759 23.4783 3.39366 23.5063 3.39809C23.5977 3.41235 23.9495 3.49086 23.991 3.49298C24.1414 3.50076 24.169 3.45817 24.26 3.45744C24.38 3.45643 24.3934 3.49629 24.5097 3.49501C24.5639 3.49447 24.6151 3.44458 24.6994 3.45507C24.7492 3.46122 24.7526 3.50203 24.792 3.5068C24.9324 3.52389 25.0339 3.50206 25.1571 3.55976C25.195 3.43178 25.2517 3.52934 25.3135 3.54146C25.5639 3.59087 25.8755 3.54827 26.0922 3.5686C26.602 3.61719 27.0812 3.69039 27.5598 3.74198C27.7098 3.75772 27.8581 3.77146 28.0065 3.782C28.1097 3.78936 28.1405 3.7257 28.2532 3.73473C28.3039 3.73885 28.3539 3.78811 28.4353 3.79239C28.5018 3.79601 28.5912 3.77606 28.6771 3.78009C28.6995 3.7811 28.6995 3.82523 28.7322 3.82705C28.9781 3.84072 29.2174 3.82047 29.4639 3.81068C29.5536 3.80694 29.6078 3.86806 29.5972 3.76576C29.6318 3.79241 29.6654 3.81579 29.6974 3.84198C29.8294 3.78426 29.9206 3.8556 30.0961 3.84802C30.1151 3.84701 30.2481 3.78339 30.3169 3.83774C30.3238 3.80183 30.3143 3.77054 30.318 3.73789C30.388 3.72763 30.4991 3.77533 30.5479 3.78221C30.5967 3.78906 30.6315 3.7438 30.6461 3.74412C30.7014 3.74588 30.6851 3.80698 30.6893 3.80823C30.9407 3.88118 30.9223 3.84724 31.0807 3.76314C31.1167 3.74165 31.3865 3.82522 31.4409 3.7551C31.4415 3.78508 31.4254 3.81049 31.4195 3.83872C31.4953 3.85087 31.5801 3.86385 31.6592 3.87637C31.6439 3.84668 31.6251 3.81675 31.6112 3.78697C31.7726 3.82171 31.9145 3.76284 32.0468 3.77361C32.1217 3.77984 32.1077 3.8425 32.1549 3.83173C32.1641 3.82959 32.1518 3.78583 32.1786 3.78416C32.3935 3.77058 32.485 3.82229 32.6954 3.84623C32.7975 3.85786 32.8863 3.78639 33.028 3.84907C33.0397 3.85479 33.1757 3.93515 33.2698 3.84378C33.2946 3.87728 33.3151 3.89554 33.335 3.92369C33.5253 3.79291 33.464 3.93175 33.6951 3.98839C33.8156 4.01715 34.2295 4.03735 34.3628 4.0406C34.4414 4.04147 34.4499 3.98444 34.4639 3.98402C34.5478 3.98242 34.5434 4.03845 34.6199 4.04071C34.7006 4.04367 34.8062 3.9967 34.8866 4.01669C34.9459 4.03169 34.8871 4.09189 34.9806 4.08414C35.0002 4.08241 34.9571 4.01431 35.0485 4.05477C35.0624 4.06088 35.2023 4.15259 35.2306 4.17218C35.1434 4.19297 34.905 4.19732 34.8168 4.19799C33.3095 4.19956 30.2489 4.08507 28.6217 3.97275C28.474 3.96321 28.3788 3.89812 28.2797 3.88846C28.1803 3.87881 28.2623 3.93819 28.1717 3.92961C28.0786 3.92077 28.0205 3.8789 27.9372 3.8719C27.8126 3.86134 27.6854 3.85066 27.5557 3.84004C27.1254 3.80405 26.6818 3.76937 26.2483 3.74387C26.1048 3.73546 25.9868 3.77617 25.8532 3.77096C25.8012 3.7689 25.8018 3.71047 25.7647 3.70953C25.377 3.6991 25.0067 3.74125 24.6166 3.71977C24.4512 3.71065 24.2814 3.65508 24.1204 3.6445C23.9883 3.63568 23.8475 3.66417 23.7281 3.66049C23.6641 3.65865 23.6318 3.61295 23.6087 3.6086C23.5281 3.59403 23.5544 3.64937 23.5129 3.64785C23.3983 3.64349 23.3434 3.57584 23.235 3.57704C23.1924 3.57754 23.1964 3.61953 23.1343 3.6238C23.0556 3.62916 23.0853 3.59164 23.0302 3.58826C23.0269 3.58797 23.0367 3.61824 23.0074 3.61839C22.8191 3.61946 22.5812 3.63452 22.3966 3.62589C22.0206 3.60839 21.6442 3.53749 21.2947 3.514C21.2057 3.50816 21.228 3.54794 21.1996 3.54883C21.0629 3.55294 21.0157 3.50465 20.8716 3.51641C20.8476 3.51832 20.751 3.56896 20.6604 3.55215C20.6115 3.5431 20.5568 3.50753 20.5151 3.49823C20.4734 3.48893 20.465 3.53823 20.4145 3.53653C20.3225 3.53353 20.3505 3.50012 20.2184 3.50173C20.1648 3.50228 19.9871 3.54318 19.8512 3.53496C19.6294 3.52157 19.3529 3.46924 19.0916 3.45972C19.0016 3.45634 18.8843 3.50334 18.7444 3.49915C18.5728 3.49405 18.26 3.47197 18.0847 3.46544C17.9953 3.46211 17.9906 3.40858 17.98 3.406C17.912 3.38889 17.9377 3.44938 17.8918 3.4455C17.8288 3.44015 17.7715 3.39426 17.7145 3.38945C17.6781 3.38638 17.6709 3.4301 17.6629 3.43018C17.37 3.43498 17.1113 3.42232 16.8203 3.41753C15.2593 3.39145 13.6841 3.39727 12.1262 3.32253C11.9957 3.31636 11.9926 3.26084 11.8781 3.26595C11.7642 3.2709 11.649 3.38695 11.5582 3.25193C11.5543 3.27848 11.554 3.29748 11.5502 3.32164C11.3121 3.27654 11.0796 3.30816 10.8441 3.30556C10.6714 3.30373 10.5197 3.29473 10.3627 3.28692C10.2237 3.27983 10.2352 3.23372 10.1113 3.2905C9.51184 3.23383 8.89292 3.22386 8.30084 3.14246C8.15569 3.2373 8.0207 3.17055 7.82836 3.14991C7.80465 3.14731 7.82895 3.18431 7.75869 3.17906C7.67132 3.17258 7.62544 3.11579 7.47323 3.11417C7.43201 3.11375 7.13705 3.16606 7.03015 3.13131C6.9194 3.09645 6.76067 3.0731 6.64932 3.03959C6.66457 3.06382 6.68415 3.08716 6.7013 3.1111C6.64484 3.11347 6.58848 3.11569 6.53282 3.11809C6.52563 3.08931 6.51844 3.06052 6.51157 3.03158C6.47918 3.05777 6.44413 3.08354 6.40954 3.11C6.3414 2.96123 6.41381 3.0113 6.25214 3.04343C6.17148 3.05942 6.10929 3.03188 6.02826 3.04427C5.99909 3.04884 5.97926 3.09142 5.94735 3.09597C5.8679 3.10686 5.91544 3.04887 5.86544 3.04765C5.81471 3.04661 5.74025 3.10962 5.65234 3.07786C5.7483 2.96439 5.48024 2.99414 5.46597 3.08414C5.4432 3.08357 5.42325 3.08099 5.40084 3.08022C5.39201 3.07992 5.38282 3.07986 5.373 3.08025C5.41328 2.85308 5.237 3.00976 5.17013 3.039C5.10286 3.06817 5.10762 3.00695 5.0921 3.00886C5.04763 3.01417 5.07906 3.04062 5.0481 3.04053C4.84873 3.03954 4.6404 2.99568 4.44446 2.98625C4.4141 2.98483 4.43993 3.02031 4.40472 3.01582C4.36955 3.01132 4.33695 2.9758 4.28563 2.97662C4.27188 2.9768 4.26662 3.00711 4.24533 3.00648C3.8009 2.99148 3.38281 2.95269 2.92726 2.93478C2.889 2.93327 2.85042 2.98625 2.77093 2.98194C2.68974 2.97757 2.57788 2.92525 2.47443 2.9183C2.44802 2.91646 2.43944 2.96132 2.40494 2.95907C2.29136 2.95147 2.1842 2.91145 2.0651 2.90181C1.85627 2.88532 1.64138 2.90626 1.43053 2.87313C1.39097 2.86696 1.3981 2.82954 1.34284 2.81724C1.24354 2.7959 1.27872 2.85185 1.25831 2.85858C1.1904 2.88024 1.17603 2.80687 1.11039 2.82361C1.10022 2.8262 1.11328 2.86986 1.10421 2.87025C0.967652 2.87359 0.962629 2.77206 0.820473 2.82206C0.692849 2.75986 0.906101 2.74655 0.930159 2.71634C0.98569 2.64283 0.849843 2.55028 0.764366 2.51927C0.693001 2.49264 0.695874 2.53955 0.664714 2.53862C0.513173 2.53414 0.287296 2.53611 0.174759 2.51044C0.103294 2.49491 0.230766 2.47932 0.195418 2.46285C0.162363 2.44647 0.137807 2.48091 0.102149 2.44136C0.0674469 2.40182 -0.00257688 2.28647 0.0129436 2.23292ZM12.7067 2.8774C12.4713 3.05456 11.8556 3.01579 11.525 2.98779C11.2504 2.96444 11.0215 2.81499 11.071 3.02273C11.3637 3.03328 11.6092 3.02033 11.9193 3.03644C11.9516 3.03814 12.1448 3.06338 12.2126 3.06895C12.2506 3.07204 12.2508 3.1061 12.3027 3.1074C12.314 3.10759 12.3782 3.06513 12.4011 3.06705C12.4805 3.0735 12.7083 3.14904 12.7413 3.14812C12.8313 3.14517 12.7985 3.09119 12.8377 3.08282C12.9693 3.0552 12.9812 3.13508 13.1119 3.11343C13.1351 3.10955 13.2149 3.04281 13.3097 3.05489C13.3483 3.05989 13.4133 3.09773 13.4431 3.09698C13.6055 3.09292 13.7887 3.05141 13.938 3.06406C14.0598 3.07447 14.025 3.12684 14.0892 3.13608C14.1533 3.14512 14.233 3.08565 14.2772 3.08348C14.3479 3.08013 14.4326 3.11808 14.4546 3.11827C14.8877 3.12179 15.2714 3.09336 15.6884 3.09222C15.4073 3.05862 15.124 3.027 14.8449 2.99268C14.6841 3.04289 14.7651 2.99356 14.6604 2.97291C14.5775 2.95656 14.5544 3.04965 14.4454 3.03574C14.4455 3.03575 14.4456 3.03575 14.4456 3.03575C14.3895 3.02847 14.2695 2.95964 14.149 2.98296C14.1448 2.98385 14.1325 3.03215 14.043 3.03099C13.8413 3.02828 13.5299 3.0433 13.3046 3.02569C13.2382 3.0205 13.2541 2.96986 13.1748 2.96101C13.1171 2.9546 13.0487 2.99971 12.9588 2.98627C12.8462 2.96918 12.7947 2.8862 12.7137 2.99665C12.7086 2.95613 12.7131 2.91693 12.7067 2.8774ZM6.46976 2.78139C6.45312 2.77641 6.24198 2.64378 6.3016 2.78031C6.59036 2.84765 6.89527 2.82798 7.19485 2.87003C7.10027 2.73393 6.91911 2.78085 6.70947 2.78415C6.70939 2.78415 6.7093 2.78414 6.70921 2.78414C6.6993 2.78429 6.7417 2.75079 6.68532 2.75536C6.65774 2.75759 6.55312 2.80771 6.46976 2.78139Z" fill="black"/>
<path d="M2.93248 4.69531C3.10755 4.65555 3.28159 4.64161 3.45964 4.66673C3.50021 4.67242 3.49531 4.70715 3.51187 4.7133C3.54231 4.72465 3.59508 4.68863 3.60232 4.68885C3.64725 4.68975 3.62783 4.75021 3.6338 4.75275C3.70043 4.77958 3.68316 4.7095 3.74779 4.70481C3.83196 4.69867 3.93924 4.7144 4.04022 4.72092C4.07568 4.72337 4.05845 4.76933 4.13519 4.76777C4.18955 4.7667 4.35768 4.71888 4.43261 4.77777C4.43241 4.79914 4.42201 4.82241 4.41726 4.84432C4.52989 4.75871 4.56911 4.76382 4.72425 4.79029C4.7488 4.79446 4.77326 4.75862 4.81627 4.77345C4.85926 4.78829 4.85937 4.8447 4.94667 4.84669C4.97764 4.84726 4.99765 4.8081 5.04517 4.80785C5.18034 4.80704 5.43597 4.86429 5.54674 4.8694C5.76487 4.87951 5.88569 4.81533 6.07878 4.84484C6.09365 4.84701 6.05953 4.88955 6.08687 4.89125C6.11443 4.89295 6.14494 4.83613 6.15176 4.83497C6.22548 4.82237 6.37794 4.90442 6.41898 4.89632C6.51874 4.87647 6.42191 4.84804 6.55952 4.84133C6.69056 4.83493 6.86873 4.9156 6.99786 4.93426C7.14749 4.95594 7.19926 4.8483 7.30884 4.96569C7.70616 4.97122 8.10499 4.97937 8.50274 4.98577C8.50091 5.00844 8.49891 5.03112 8.49685 5.05379C8.52877 5.03904 8.5607 5.02427 8.59261 5.00969C8.58734 5.02645 8.58232 5.04323 8.57706 5.05982C8.72671 4.99912 8.85934 4.96951 9.03132 4.99272C9.03468 4.99316 9.02442 5.03817 9.02718 5.03943C9.06582 5.04916 9.11035 5.01566 9.14425 5.02491C9.2262 5.04708 9.36339 5.15012 9.30535 5.02747C9.49704 5.05831 9.72443 5.02442 9.90712 5.05344C9.98618 5.06595 10.0078 5.13824 10.0456 5.14354C10.0834 5.1488 10.066 5.08671 10.0796 5.08476C10.1609 5.07358 10.2941 5.0802 10.306 5.14946C10.3231 5.12247 10.3412 5.09517 10.3586 5.06801C10.3466 5.14403 10.5977 5.12016 10.6633 5.12404C10.6753 5.12475 10.6759 5.15825 10.685 5.15819C10.7859 5.157 10.8122 5.10532 10.8991 5.09055C10.9296 5.08533 10.8808 5.14284 10.9594 5.11977C10.9662 5.11775 10.9642 5.06468 11.0572 5.06787C11.2055 5.07293 11.49 5.06064 11.6658 5.09218C11.6802 5.09468 11.6344 5.15106 11.701 5.13963C11.7251 5.13558 11.7149 5.09424 11.773 5.09568C11.9983 5.10088 12.237 5.15538 12.468 5.12332C12.4582 5.16935 12.3748 5.21876 12.4987 5.1935C12.5185 5.18931 12.5051 5.14752 12.514 5.14626C12.5858 5.1365 12.6468 5.16793 12.7246 5.15443C12.7476 5.15035 12.7543 5.11806 12.783 5.11125C12.8254 5.1011 12.8426 5.14795 12.8921 5.12981C12.9694 5.10124 12.9826 5.05773 13.0747 5.14669C13.6117 5.1577 14.1469 5.14987 14.6808 5.2042C14.8362 5.18435 14.9798 5.16125 15.1413 5.1568C15.1889 5.15553 15.1962 5.21455 15.2725 5.19742C15.2896 5.19367 15.4126 5.13433 15.4266 5.25358C15.4606 5.24437 15.4819 5.24468 15.511 5.23925C15.4896 5.22115 15.4675 5.20285 15.447 5.18461C15.5686 5.20731 15.6696 5.16852 15.7783 5.15203C15.8583 5.13996 15.8003 5.18913 15.8493 5.18551C15.8983 5.18206 15.9208 5.17128 15.98 5.23413C16.0301 5.16526 16.0605 5.21557 16.1488 5.22016C16.1583 5.22062 16.2141 5.19503 16.2598 5.20189C16.2927 5.20683 16.3011 5.25099 16.3538 5.24581C16.3624 5.24504 16.4749 5.19409 16.5103 5.19022C16.5655 5.18405 16.6511 5.24297 16.6618 5.24397C16.8159 5.25861 16.8771 5.20492 16.984 5.29966C17.0078 5.24604 17.1003 5.21706 17.1741 5.22461C17.2673 5.23414 17.4512 5.35092 17.4804 5.23437C17.5868 5.28995 17.5761 5.25733 17.7043 5.26023C17.821 5.26279 18.1286 5.31715 18.2234 5.31357C18.3181 5.31015 18.274 5.24348 18.3118 5.23592C18.3737 5.22332 18.3391 5.27046 18.3811 5.27106C18.5001 5.27266 18.6038 5.26663 18.718 5.24911C18.723 5.2831 18.7286 5.31728 18.7339 5.35128C18.7401 5.34019 18.7463 5.3291 18.7525 5.31801C18.7769 5.3191 18.8043 5.31925 18.8269 5.32096C18.6406 5.1667 19.0109 5.3376 19.1234 5.34481C19.2183 5.3508 19.3786 5.28527 19.4833 5.27326C19.5087 5.2703 19.4902 5.3063 19.4954 5.30561C19.5568 5.29707 19.5668 5.27241 19.6488 5.27834C19.6922 5.28155 19.7351 5.32866 19.7773 5.33083C20.0877 5.3465 20.3887 5.30973 20.6974 5.31424C20.7499 5.315 20.7934 5.37223 20.8375 5.37479C20.9005 5.37843 20.9417 5.33393 21.001 5.33504C21.06 5.33617 21.1434 5.39343 21.1837 5.38629C21.224 5.37932 21.1571 5.32427 21.2299 5.34103C21.2634 5.34874 21.2027 5.38635 21.2443 5.38882C21.374 5.39656 21.5587 5.35335 21.6954 5.40489C21.6897 5.39292 21.6816 5.38206 21.6745 5.37056C21.8216 5.37969 21.9508 5.41204 22.1027 5.4208C22.1558 5.42396 22.2527 5.39228 22.3049 5.39404C22.3571 5.39582 22.3797 5.43411 22.4215 5.43643C22.4387 5.43747 22.433 5.4036 22.4445 5.40464C22.5885 5.41796 22.6658 5.48031 22.8171 5.47812C23.3713 5.47016 23.9426 5.46614 24.5053 5.46083C24.5279 5.46064 24.5445 5.41725 24.5777 5.41177C24.6288 5.40329 24.6301 5.44213 24.6369 5.44371C24.6809 5.4536 24.6639 5.41716 24.7234 5.41899C24.8544 5.42301 25.0646 5.46127 25.1952 5.46255C25.4962 5.46545 25.7501 5.43904 26.0455 5.43083C26.0668 5.43012 26.0508 5.48159 26.0877 5.48341C26.3473 5.49684 26.4038 5.44882 26.7268 5.47275C27.0498 5.49668 27.6592 5.54686 28.0376 5.56565C28.0376 5.56577 28.0376 5.56589 28.0376 5.56601C28.1597 5.47368 28.3132 5.50228 28.4389 5.57879C27.6935 5.79288 26.9904 5.66585 26.2017 5.65105C25.3728 5.63537 24.4842 5.78028 23.6452 5.73112C23.5663 5.72647 23.5363 5.67083 23.4694 5.68024C23.4581 5.68183 23.4859 5.72485 23.4512 5.72806C22.9745 5.77088 22.4711 5.65932 22.004 5.67165C21.878 5.67497 21.8568 5.72134 21.7459 5.73007C21.766 5.70847 21.7794 5.68565 21.7971 5.6638C21.2944 5.57897 20.7879 5.59437 20.2769 5.56877C20.2539 5.56754 20.2523 5.5215 20.2282 5.51905C20.1799 5.51399 20.132 5.56312 20.0897 5.56355C20.0344 5.56407 20.026 5.52722 19.975 5.52805C19.9501 5.52851 19.9565 5.56388 19.9027 5.55626C19.8982 5.55561 19.8963 5.51865 19.8603 5.5223C19.7615 5.53244 19.5595 5.55719 19.4778 5.56392C19.3734 5.57251 19.2916 5.51442 19.2524 5.5096C19.1464 5.49661 19.1469 5.55354 19.0569 5.5508C18.4164 5.53149 17.8061 5.448 17.1504 5.42839C17.1093 5.42716 16.955 5.48579 16.8788 5.48092C16.8533 5.47911 16.7203 5.45829 16.7003 5.45629C16.6193 5.4485 16.5503 5.40808 16.5057 5.39868C16.4194 5.38031 16.3205 5.4371 16.2731 5.44163C16.1898 5.44967 16.0426 5.43729 16.0078 5.43468C15.9238 5.42834 15.9538 5.35526 15.8929 5.37066C15.8749 5.37527 15.8919 5.43252 15.829 5.43059C15.7764 5.42878 15.7564 5.38544 15.7207 5.37666C15.6849 5.36792 15.6169 5.4319 15.5946 5.42956C15.4777 5.41674 15.4272 5.37189 15.2997 5.36576C15.1939 5.36081 14.7033 5.37605 14.6622 5.39034C14.4777 5.4542 14.7823 5.43235 14.7993 5.43522C14.8914 5.45155 14.8771 5.47779 14.9709 5.42972C15.0486 5.58923 15.3438 5.35365 15.4118 5.54209C15.4919 5.42042 15.554 5.48491 15.6335 5.51231C15.7434 5.55018 15.6611 5.47532 15.7421 5.47729C15.774 5.47814 15.8648 5.5373 15.9129 5.53092C15.9611 5.52452 15.9826 5.48194 16.0469 5.48152C16.1617 5.48061 16.2533 5.5036 16.3481 5.5583C16.3664 5.53595 16.3836 5.51357 16.4017 5.49122C16.4674 5.51785 16.5334 5.54435 16.5992 5.57081C16.5892 5.5505 16.5791 5.53002 16.5691 5.50971C16.5887 5.5074 16.6082 5.50526 16.6278 5.50312C16.6915 5.53517 16.7524 5.56489 16.818 5.59802C17.0022 5.48796 16.9467 5.58641 17.0466 5.60452C17.1466 5.62261 17.2067 5.55747 17.2843 5.55949C17.3888 5.56218 17.437 5.5553 17.5422 5.56332C17.6032 5.56792 17.7048 5.63568 17.6229 5.53076C17.8138 5.52841 18.0757 5.50787 18.245 5.55461C18.295 5.56826 18.2268 5.59843 18.2353 5.60269C18.2775 5.62296 18.3151 5.57183 18.3589 5.58067C18.4318 5.59538 18.5732 5.64043 18.6306 5.65177C18.7132 5.66816 18.8458 5.60449 18.8593 5.59995C18.9347 5.57475 18.953 5.63154 18.977 5.6284C19.1141 5.61004 19.1449 5.58737 19.1843 5.70721C19.2211 5.65705 19.3717 5.57536 19.4048 5.66269C19.4081 5.58484 19.5304 5.60174 19.6066 5.58459C19.6199 5.60756 19.6335 5.63041 19.6468 5.65356C19.8087 5.51902 20.1195 5.62989 20.3264 5.65283C20.3316 5.65333 20.3427 5.59525 20.3735 5.60936C20.3754 5.6105 20.3714 5.63663 20.3922 5.64067C20.4609 5.65373 20.7221 5.72732 20.7523 5.72883C20.8638 5.73447 20.8846 5.6915 20.9525 5.68948C21.042 5.68676 21.0537 5.72647 21.1389 5.72346C21.1788 5.72212 21.2166 5.67148 21.279 5.68072C21.3159 5.68612 21.3183 5.72687 21.3476 5.73105C21.4517 5.74604 21.5293 5.72275 21.6204 5.77854C21.6485 5.65001 21.6899 5.74665 21.7355 5.7578C21.9207 5.80332 22.1546 5.75582 22.3141 5.7725C22.8119 5.82488 23.2518 5.91818 23.7386 5.95107C23.8177 5.9564 23.8387 5.89208 23.9216 5.89873C23.9589 5.90177 23.9959 5.94995 24.0569 5.9525C24.106 5.95468 24.177 5.93295 24.2383 5.93499C24.2545 5.93549 24.2546 5.9796 24.2786 5.98068C24.4603 5.98881 24.6389 5.96297 24.8231 5.94709C24.8914 5.94117 24.9317 6.00085 24.9233 5.89888C24.9486 5.92461 24.9732 5.9471 24.9969 5.97244C25.0925 5.91126 25.1669 5.98036 25.294 5.96785C25.3077 5.96631 25.4055 5.89899 25.4582 5.95136C25.4632 5.91527 25.4557 5.88428 25.4583 5.85154C25.5123 5.83935 25.5933 5.88369 25.6294 5.88908C25.6654 5.89445 25.6911 5.84817 25.7019 5.84804C25.7434 5.84812 25.7318 5.90967 25.735 5.91079C25.926 5.97597 25.9067 5.9424 26.026 5.85323C26.0559 5.83073 26.2519 5.90475 26.2942 5.83273C26.2951 5.86267 26.2832 5.88862 26.2792 5.91704C26.3384 5.92655 26.3981 5.93628 26.4576 5.9458C26.4458 5.91671 26.4315 5.88752 26.4208 5.8583C26.5419 5.88698 26.6454 5.82247 26.745 5.82773C26.802 5.83085 26.7931 5.89403 26.827 5.88122C26.8336 5.87868 26.8239 5.8355 26.8434 5.83266C27.0028 5.80969 27.0708 5.85707 27.2293 5.87048C27.3036 5.87685 27.3711 5.80099 27.4763 5.8555C27.4859 5.86059 27.5885 5.93294 27.6562 5.83587C27.6758 5.86776 27.6934 5.88473 27.708 5.91151C27.8435 5.76846 27.8029 5.91148 27.9789 5.95108C28.07 5.97164 28.379 5.95533 28.4792 5.94268C28.5389 5.93493 28.5396 5.87709 28.5503 5.8751C28.614 5.86372 28.6123 5.91975 28.6712 5.91234C28.73 5.90492 28.806 5.84381 28.8659 5.85146C28.9119 5.85735 28.8734 5.92585 28.9422 5.90369C28.9565 5.89887 28.918 5.83856 28.9891 5.86393C29.0003 5.86787 29.113 5.93529 29.1361 5.94984C29.0746 5.98506 28.8981 6.02804 28.8318 6.04105C27.6905 6.26591 25.4076 6.19856 24.1984 6.1288C24.0861 6.12244 24.0145 6.05938 23.9414 6.05183C23.8682 6.04429 23.9285 6.1019 23.8621 6.09525C23.7958 6.08843 23.7486 6.04763 23.6865 6.04231C23.2679 6.00621 22.8462 5.96866 22.4307 5.94514C22.3229 5.9391 22.2352 5.98174 22.1371 5.97872C22.0989 5.97752 22.0995 5.9191 22.0724 5.91878C21.7798 5.91442 21.5076 5.96231 21.217 5.94656C21.0963 5.93994 20.9673 5.88675 20.8478 5.87846C20.7494 5.87151 20.6461 5.90201 20.5575 5.89998C20.5093 5.89902 20.4853 5.85377 20.468 5.84973C20.4077 5.83626 20.4273 5.89123 20.3963 5.89028C20.3108 5.88747 20.2703 5.82058 20.1901 5.82325C20.1586 5.82433 20.1614 5.86625 20.1156 5.87137C20.0574 5.87779 20.08 5.83989 20.0387 5.83723C20.0362 5.83699 20.0434 5.86712 20.0215 5.86765C19.8801 5.87118 19.7032 5.88933 19.5671 5.8831C19.2856 5.87036 19.0095 5.80426 18.7475 5.78494C18.6813 5.78017 18.6977 5.81967 18.6766 5.8209C18.575 5.82666 18.5403 5.77895 18.4337 5.79244C18.416 5.79464 18.3433 5.84639 18.2759 5.83065C18.2395 5.82217 18.1989 5.78725 18.1679 5.77844C18.137 5.76962 18.1305 5.81901 18.093 5.8179C18.0246 5.81597 18.0456 5.78224 17.9477 5.78539C17.9083 5.78657 17.7754 5.82948 17.6742 5.8228C17.5089 5.81191 17.305 5.76273 17.1099 5.75606C17.0429 5.75367 16.9554 5.80194 16.8515 5.79926C16.7247 5.79605 16.4912 5.7773 16.3612 5.77263C16.2947 5.77024 16.2916 5.71677 16.2837 5.71431C16.2333 5.69791 16.252 5.75812 16.218 5.75473C16.1713 5.75004 16.129 5.70476 16.0865 5.70055C16.0595 5.69786 16.0538 5.74164 16.0479 5.7418C15.8299 5.74964 15.6378 5.73964 15.4215 5.73779C14.2612 5.72749 13.0888 5.74794 11.9323 5.68698C11.8354 5.68196 11.8334 5.62648 11.7479 5.63258C11.6624 5.6385 11.5764 5.75554 11.5103 5.62135C11.5072 5.64793 11.5069 5.66693 11.5038 5.69112C11.3288 5.64814 11.1514 5.68163 10.979 5.68112C10.8513 5.68079 10.7383 5.67307 10.6206 5.66655C10.5163 5.66061 10.5267 5.61446 10.4344 5.67228C9.98622 5.62057 9.53173 5.61587 9.08813 5.53917C8.9806 5.6352 8.88236 5.5696 8.7383 5.55048C8.72051 5.54807 8.73854 5.58487 8.68573 5.58017C8.61939 5.57435 8.5867 5.51798 8.47471 5.5176C8.44506 5.51755 8.22374 5.57215 8.14351 5.53823C8.06329 5.50432 7.94625 5.48226 7.86282 5.44962C7.87408 5.47372 7.88856 5.4969 7.90118 5.52071C7.85899 5.52351 7.81658 5.52617 7.77439 5.52898C7.76916 5.50026 7.76392 5.47153 7.75892 5.44265C7.73366 5.46906 7.7084 5.49513 7.68291 5.52187C7.63426 5.37371 7.68728 5.42317 7.56788 5.45661C7.50806 5.47324 7.46181 5.44619 7.40051 5.45918C7.37843 5.46397 7.36308 5.50669 7.33874 5.51147C7.27909 5.52297 7.31544 5.46464 7.27884 5.46383C7.24196 5.46321 7.18703 5.52682 7.12188 5.49576C7.1944 5.38158 6.99396 5.4134 6.98169 5.50346C6.95797 5.5029 6.9382 5.49854 6.91191 5.50029C6.94311 5.27283 6.81393 5.43096 6.76366 5.4607C6.71343 5.4904 6.71731 5.42915 6.7057 5.43119C6.67228 5.43683 6.69569 5.46304 6.67239 5.46318C6.51799 5.46357 6.37391 5.42169 6.22181 5.4136C6.19993 5.41244 6.21828 5.44769 6.19286 5.4435C6.16741 5.4393 6.14398 5.40406 6.10613 5.40529C6.09598 5.40558 6.09186 5.43592 6.07608 5.43547C5.74525 5.42395 5.43188 5.38838 5.09457 5.3741C5.06405 5.37282 5.03842 5.4262 4.97946 5.42252C4.9205 5.41883 4.83245 5.36724 4.75929 5.36122C4.73988 5.3596 4.73322 5.40452 4.70747 5.40253C4.61986 5.39573 4.54541 5.35671 4.45446 5.34793C4.30078 5.33314 4.1387 5.3557 3.98327 5.32427C3.9538 5.3184 3.95968 5.28095 3.91729 5.26904C3.84412 5.24851 3.87018 5.30418 3.85503 5.31107C3.80547 5.33329 3.79236 5.25996 3.74454 5.27725C3.73723 5.27993 3.74621 5.32346 3.73971 5.32393C3.63906 5.32837 3.6369 5.22693 3.52848 5.27797C3.43534 5.21682 3.59451 5.20185 3.61174 5.17144C3.65381 5.09751 3.5514 5.00599 3.4903 4.97573C3.43769 4.94967 3.43665 4.99646 3.41541 4.99583C3.30301 4.99256 3.13536 4.99632 3.05055 4.97149C2.99917 4.95658 3.09312 4.93996 3.06713 4.92377C3.04137 4.90762 3.02332 4.94226 2.99759 4.90301C2.97185 4.86375 2.92042 4.74897 2.93248 4.69531ZM12.3669 5.23681C12.1889 5.41598 11.7325 5.38269 11.4877 5.35757C11.2846 5.33663 11.1134 5.18912 11.1492 5.3964C11.3692 5.40451 11.5478 5.38931 11.7803 5.40277C11.8045 5.4042 11.9482 5.42774 11.9983 5.4327C12.0265 5.43545 12.0264 5.4695 12.0648 5.47034C12.0732 5.47042 12.121 5.4274 12.1379 5.42911C12.1959 5.43483 12.3666 5.50838 12.3908 5.50715C12.4579 5.5034 12.4338 5.44972 12.463 5.441C12.561 5.41221 12.5692 5.49197 12.6661 5.46913C12.6835 5.46504 12.7426 5.39757 12.8135 5.40881C12.8424 5.41346 12.8906 5.45071 12.9128 5.44968C13.0339 5.44416 13.1701 5.40097 13.2805 5.41222C13.3709 5.4215 13.3449 5.47418 13.3926 5.48283C13.4403 5.49128 13.5001 5.43108 13.533 5.4285C13.5857 5.42449 13.6484 5.46164 13.6647 5.46163C13.9857 5.46105 14.2721 5.42899 14.5819 5.42379C14.3726 5.39292 14.1634 5.36406 13.9555 5.33238C13.8353 5.38408 13.8958 5.334 13.8184 5.31436C13.757 5.2988 13.7392 5.39208 13.6584 5.3792C13.6585 5.37921 13.6585 5.37921 13.6586 5.37921C13.6169 5.37246 13.5282 5.30476 13.4383 5.32919C13.4351 5.33013 13.4257 5.37853 13.3589 5.37819C13.2088 5.37735 12.9783 5.39526 12.8099 5.37967C12.7605 5.37507 12.7722 5.32429 12.7138 5.31617C12.6712 5.31029 12.6202 5.35601 12.5537 5.34339C12.4702 5.32733 12.4324 5.24483 12.3713 5.35596C12.3678 5.3155 12.3714 5.27627 12.3669 5.23681ZM7.72944 5.19284C7.71779 5.18801 7.56382 5.05714 7.6065 5.19315C7.81684 5.25808 8.04708 5.2361 8.2693 5.27574C8.19716 5.14034 8.06661 5.18883 7.90981 5.19376C7.90975 5.19376 7.90968 5.19376 7.90961 5.19376C7.90221 5.19398 7.93416 5.16016 7.89197 5.16517C7.87152 5.16762 7.79181 5.21851 7.72944 5.19284Z" fill="black"/>
</svg>
