<svg width="9" height="14" viewBox="0 0 9 14" fill="none" xmlns="http://www.w3.org/2000/svg">
<path d="M2.29159e-06 6.99474C0.127784 6.81817 0.274047 6.65785 0.450163 6.52234C0.489924 6.49174 0.510833 6.51987 0.529644 6.5102C0.564263 6.49244 0.586305 6.42085 0.592687 6.41495C0.633577 6.3765 0.659081 6.43602 0.666165 6.43268C0.743585 6.3948 0.679794 6.35913 0.733359 6.3004C0.8038 6.22323 0.910209 6.14134 1.00441 6.05823C1.03738 6.02937 1.05561 6.07592 1.12185 6.00876C1.16945 5.96065 1.28458 5.78047 1.39246 5.75679C1.40748 5.77198 1.41477 5.79748 1.42614 5.81704C1.46474 5.65877 1.50331 5.62796 1.65905 5.51112C1.66672 5.50535 1.67167 5.49688 1.6763 5.48711C1.68539 5.46648 1.69232 5.43982 1.72344 5.42246C1.76847 5.39693 1.81033 5.43584 1.88074 5.36167C1.9055 5.33503 1.89145 5.29207 1.92714 5.25023C2.02968 5.13342 2.25376 4.92682 2.32973 4.81801C2.48075 4.60651 2.49618 4.44981 2.63284 4.26073C2.64325 4.24596 2.66142 4.30195 2.67858 4.27367C2.69602 4.24486 2.66254 4.18654 2.66534 4.17874C2.69564 4.09517 2.85232 3.96624 2.86715 3.91702C2.90239 3.79953 2.82557 3.89316 2.89205 3.73947C2.95527 3.59278 3.1202 3.42701 3.20295 3.28845C3.22343 3.25431 3.23625 3.22247 3.24537 3.19285C3.27595 3.08965 3.25513 3.01822 3.37922 2.95519C3.55916 2.5106 3.70746 2.04225 3.84501 1.57138C3.86635 1.57933 3.88761 1.58754 3.90886 1.59573C3.90522 1.5537 3.90136 1.51205 3.89766 1.47031C3.91217 1.48078 3.92678 1.49099 3.94112 1.50145C3.93486 1.37857 3.9381 1.26641 3.96097 1.15014C3.97395 1.0838 3.99304 1.0161 4.01991 0.943772C4.02133 0.939946 4.06212 0.962361 4.06415 0.959428C4.08525 0.915422 4.06545 0.855282 4.0841 0.817024C4.12934 0.724742 4.26609 0.581906 4.13079 0.625882C4.18151 0.487083 4.19018 0.385523 4.24144 0.173558C4.25437 0.148128 4.2355 0.159503 4.29616 0.0799346C4.31993 0.0592864 4.31827 0.0423008 4.40969 0.00950873C4.50743 -0.0270356 4.63514 0.0525168 4.64589 0.0751782C4.6894 0.123099 4.69626 0.155212 4.70171 0.167412C4.71849 0.219131 4.71773 0.232021 4.72149 0.253125C4.72663 0.289472 4.7289 0.319321 4.73057 0.346357C4.73386 0.402194 4.73409 0.455834 4.73115 0.503582C4.72511 0.603911 4.65451 0.637023 4.6521 0.683462C4.64975 0.731088 4.71035 0.704859 4.71333 0.721649C4.73054 0.821361 4.73481 0.986102 4.6669 1.00635C4.69529 1.02558 4.72406 1.04534 4.75265 1.06426C4.67541 1.05651 4.7231 1.36275 4.72762 1.44328C4.7283 1.45804 4.69506 1.46245 4.69619 1.47362C4.70945 1.59707 4.76431 1.62348 4.79103 1.72677C4.8006 1.76308 4.7364 1.71146 4.77084 1.80375C4.77397 1.8117 4.82581 1.80252 4.83752 1.91464C4.84651 1.99913 4.86547 2.11894 4.88629 2.24312C4.90952 2.38289 4.93547 2.52911 4.94452 2.64224C4.94606 2.65986 4.87859 2.61886 4.90814 2.6952C4.91888 2.72278 4.95584 2.70035 4.97123 2.76906C5.03118 3.03354 5.06399 3.32785 5.19018 3.5798C5.14316 3.58514 5.06196 3.50663 5.13741 3.63972C5.14976 3.66097 5.18305 3.63054 5.188 3.64021C5.22743 3.71799 5.22517 3.79896 5.27331 3.88142C5.28756 3.90549 5.32039 3.90049 5.34001 3.92987C5.36891 3.9726 5.3343 4.01107 5.37474 4.05871C5.43841 4.13279 5.48392 4.12833 5.45026 4.26798C5.51091 4.40494 5.57566 4.53993 5.64276 4.67565C5.85403 5.10614 6.16469 5.46096 6.53652 5.77223C6.69729 5.86138 6.85357 5.9292 7.0254 6.02099C7.07624 6.04805 7.05577 6.10432 7.14606 6.1343C7.16592 6.14099 7.32784 6.16145 7.28775 6.27548C7.30933 6.28185 7.32593 6.28841 7.34168 6.29502C7.35521 6.3005 7.36826 6.30603 7.38384 6.3112C7.37587 6.29504 7.3679 6.27864 7.36061 6.26245C7.35443 6.25048 7.34835 6.23855 7.34253 6.2268C7.35165 6.2337 7.36078 6.24023 7.36992 6.24643C7.47223 6.31673 7.58709 6.33084 7.70123 6.36215C7.79277 6.38686 7.71123 6.40654 7.76657 6.42504C7.82226 6.44353 7.85066 6.44304 7.89639 6.52761C7.977 6.48439 7.9941 6.54441 8.09579 6.58658C8.10658 6.59105 8.18035 6.59071 8.23329 6.61795C8.27122 6.63765 8.26626 6.68261 8.33313 6.704C8.34159 6.70732 8.41192 6.709 8.49009 6.73237C8.5301 6.75179 8.58683 6.77909 8.63805 6.86832C8.69528 6.97056 8.6745 7.08718 8.6546 7.13346C8.55166 7.33208 8.48898 7.30529 8.43786 7.33301C8.38662 7.34844 8.35116 7.35006 8.34406 7.35352C8.15031 7.43916 8.10877 7.5134 7.94585 7.4867C7.94316 7.54734 7.85281 7.62222 7.76959 7.65494C7.66444 7.6949 7.41244 7.69735 7.44116 7.81622C7.30466 7.83084 7.3306 7.85213 7.20461 7.92968C7.15574 7.96046 7.06912 8.00687 6.9852 8.06029C6.87276 8.13092 6.76105 8.22008 6.72033 8.26722C6.6491 8.34994 6.73373 8.35658 6.71111 8.39344C6.67544 8.45436 6.66462 8.3944 6.63339 8.43092C6.54588 8.53508 6.48045 8.6365 6.42257 8.75669C6.39072 8.74327 6.35834 8.73036 6.32617 8.71747C6.33152 8.72961 6.33694 8.74171 6.34237 8.75378C6.3259 8.77745 6.30851 8.80495 6.29305 8.82688C6.54037 8.72083 6.16465 9.00079 6.09625 9.12379C6.03636 9.22233 6.00823 9.42518 5.96358 9.54592C5.95267 9.57533 5.92995 9.53959 5.92778 9.54566C5.90278 9.61727 5.91985 9.63881 5.87056 9.72823C5.84438 9.77559 5.77846 9.80427 5.75328 9.85141C5.75042 9.85678 5.74757 9.86214 5.74473 9.8675C5.58359 10.1712 5.5368 10.5254 5.45744 10.8849C5.44385 10.9475 5.37746 10.9886 5.36463 11.0417C5.34644 11.1172 5.38121 11.174 5.36701 11.2458C5.36286 11.2669 5.35323 11.29 5.34169 11.3138C5.31509 11.3675 5.27849 11.4235 5.27752 11.4589C5.2761 11.5088 5.34431 11.4361 5.31269 11.5221C5.29812 11.562 5.27356 11.4817 5.26247 11.5324C5.22813 11.6892 5.23333 11.9238 5.15228 12.0852C5.16535 12.08 5.17782 12.0718 5.19073 12.0648C5.14938 12.2459 5.08799 12.4015 5.03606 12.591C5.01813 12.6568 5.01771 12.788 4.99469 12.8568C4.97196 12.9253 4.92498 12.9445 4.90079 13.0004C4.89047 13.0234 4.92505 13.0282 4.91714 13.0443C4.88709 13.1034 4.85416 13.1547 4.79571 13.2134C4.75352 13.2608 4.58932 13.3814 4.42388 13.3035C4.25046 13.2005 4.25557 13.1225 4.19941 13.0413C3.8684 12.3528 3.73723 11.6698 3.5447 10.993C3.53757 10.9667 3.49021 10.9571 3.4746 10.9198C3.47301 10.916 3.47169 10.9124 3.47061 10.909C3.45533 10.8617 3.48741 10.8508 3.48685 10.8432C3.48232 10.7909 3.45284 10.8196 3.43487 10.7526C3.396 10.6043 3.34833 10.3612 3.28615 10.2227C3.14556 9.90342 2.96694 9.67263 2.74768 9.40744C2.73163 9.38838 2.78338 9.37061 2.75752 9.33548C2.58979 9.11157 2.50522 9.0765 2.3061 8.84385L2.32633 8.8649C2.30257 8.8419 2.27751 8.81708 2.25096 8.79016C1.97273 8.50492 1.43563 7.98204 1.07439 7.69607C1.07446 7.69598 1.07454 7.69588 1.07461 7.69579C0.901847 7.6826 0.769554 7.55397 0.685052 7.40669C1.39176 7.66854 1.91941 8.18305 2.46455 8.71972L2.45675 8.7116C2.57059 8.84628 2.68457 8.98195 2.79833 9.12136C3.2114 9.61096 3.5796 10.1783 3.77608 10.8358C3.89184 11.2082 3.99446 11.5841 4.08088 11.9547C4.10325 12.0504 4.06047 12.1025 4.09324 12.1796C4.0988 12.1927 4.12993 12.1466 4.14538 12.187C4.26927 12.4794 4.32202 12.862 4.51366 13.0707C4.59668 13.095 4.67185 12.9112 4.7141 12.8001C4.75991 12.6746 4.79276 12.5464 4.81696 12.4187C4.84525 12.2651 4.80407 12.2308 4.82022 12.0944C4.83714 12.1223 4.85658 12.1428 4.87415 12.168C4.97136 11.8719 5.0359 11.568 5.09998 11.2645C5.16681 10.9514 5.22924 10.6366 5.32609 10.33C5.33487 10.3028 5.37987 10.3128 5.39036 10.2851C5.41148 10.2299 5.38173 10.1599 5.39795 10.11C5.41932 10.0452 5.45774 10.0473 5.4788 9.98904C5.48932 9.96078 5.453 9.95517 5.48536 9.89669C5.48813 9.8919 5.52305 9.90347 5.53719 9.86205C5.54544 9.83804 5.55581 9.80852 5.56781 9.77646C5.61381 9.6544 5.67293 9.49106 5.70314 9.41673C5.75191 9.29593 5.84988 9.2304 5.87619 9.18947C5.94769 9.07877 5.89672 9.05359 5.95253 8.95644C6.19102 8.54491 6.49046 8.17542 6.86889 7.90861C7.12252 7.731 7.4084 7.5966 7.70329 7.46041C7.74914 7.4389 7.89677 7.30388 7.98445 7.26784C8.0145 7.25594 8.17224 7.20265 8.19614 7.19166C8.29115 7.14499 8.38285 7.16498 8.45839 7.06221C8.5031 6.99545 8.4244 6.90068 8.39649 6.89779C8.30625 6.85742 8.21319 6.86357 8.16756 6.84945C8.06755 6.82015 7.8996 6.74621 7.86017 6.72829C7.76461 6.68548 7.82489 6.63017 7.74961 6.61749C7.72745 6.61368 7.7265 6.67515 7.65494 6.64434C7.5951 6.61808 7.58868 6.56819 7.55205 6.54282C7.51561 6.51772 7.414 6.54148 7.38982 6.52702C7.33516 6.49448 7.29831 6.46205 7.26356 6.42941C7.21793 6.38687 7.17315 6.34481 7.0967 6.2992C6.97986 6.23697 6.45662 5.93852 6.41209 5.91217C6.18997 5.82959 6.50933 6.03465 6.52751 6.04561C6.61484 6.12161 6.58712 6.13508 6.71119 6.15424C6.71519 6.34525 7.15144 6.31578 7.13686 6.52187C7.17001 6.50815 7.19745 6.5025 7.2209 6.5028C7.30052 6.5042 7.33755 6.57098 7.39949 6.6231C7.5108 6.71512 7.44581 6.60402 7.53781 6.64627C7.57374 6.66285 7.65773 6.76096 7.71663 6.77666C7.77527 6.79243 7.81481 6.7619 7.89001 6.78939C8.02365 6.83802 8.12599 6.89835 8.21266 6.99241C8.24164 6.98011 8.2688 6.96725 8.29832 6.95602C8.31255 6.96921 8.32767 6.98329 8.34034 6.99702C8.36173 7.02981 8.3046 7.01002 8.24615 7.03246C8.26646 7.04367 8.28729 7.05451 8.30908 7.06389C8.29081 7.07977 8.27176 7.09395 8.25273 7.10752C8.16865 7.11894 8.08778 7.12501 8.00056 7.13037C7.84299 7.32738 7.86187 7.2089 7.741 7.24652C7.61995 7.28443 7.58149 7.37609 7.49425 7.41853C7.37666 7.47645 7.32666 7.51109 7.20826 7.57073C7.13981 7.6051 6.99461 7.61758 7.13889 7.65065C7.04454 7.71042 6.93863 7.78798 6.83863 7.86916C6.72463 7.96128 6.61839 8.05795 6.52388 8.12457C6.47143 8.16197 6.50647 8.07856 6.49629 8.08353C6.44457 8.10974 6.45192 8.1789 6.40985 8.21541C6.33895 8.27543 6.19508 8.39322 6.14467 8.44812C6.0701 8.52605 6.03647 8.70212 6.0323 8.71864C6.0056 8.81225 5.94526 8.80444 5.93284 8.83239C5.86447 8.99145 5.86861 9.03568 5.73825 9.02565C5.76085 9.08981 5.75029 9.29301 5.65356 9.29279C5.72191 9.32993 5.64016 9.45978 5.61503 9.55256C5.58704 9.55783 5.55899 9.56354 5.5308 9.56885C5.53932 9.62506 5.5305 9.68557 5.51052 9.74699C5.44415 9.94317 5.29518 10.1794 5.22858 10.369C5.22648 10.3751 5.27933 10.4023 5.25621 10.4362C5.25451 10.4383 5.2303 10.4272 5.22004 10.4517C5.18502 10.5312 5.04443 10.8372 5.03649 10.8747C5.00375 11.0114 5.0418 11.0436 5.02825 11.1276C5.01935 11.1835 5.0047 11.2123 4.98995 11.242C4.97565 11.2702 4.96125 11.2995 4.95384 11.3513C4.94663 11.401 4.98877 11.4551 4.9668 11.5301C4.95378 11.575 4.91308 11.5714 4.9029 11.6068C4.86667 11.7324 4.87381 11.8311 4.79944 11.9335C4.92041 11.9883 4.81614 12.0236 4.79513 12.0772C4.71 12.2944 4.70038 12.5856 4.62737 12.7637C4.60209 12.8254 4.57383 12.8854 4.5429 12.9317C4.51728 12.9887 4.4557 12.9723 4.55274 12.9694C4.57541 12.9809 4.49691 12.8486 4.47626 12.7557C4.44661 12.6557 4.42174 12.5492 4.39838 12.4423C4.35187 12.2279 4.31059 12.0083 4.26077 11.7813C4.23996 11.686 4.1713 11.6786 4.15104 11.5777C4.14201 11.5322 4.17663 11.4751 4.15977 11.4012C4.14639 11.342 4.10302 11.2622 4.08584 11.1882C4.08118 11.1684 4.12368 11.1565 4.11722 11.1274C4.09082 11.0088 4.05525 10.8935 4.01591 10.7783C3.98105 10.6751 3.94134 10.5733 3.8999 10.4706C3.86691 10.3892 3.90425 10.3182 3.81262 10.3645C3.82596 10.3254 3.83561 10.2865 3.84828 10.2485C3.74685 10.1554 3.77406 10.0389 3.6899 9.89282C3.6807 9.87657 3.56442 9.79527 3.57644 9.70994C3.54205 9.72232 3.5198 9.74617 3.48976 9.75951C3.44632 9.70535 3.43132 9.59372 3.41087 9.55134C3.39082 9.50914 3.33434 9.50744 3.32675 9.49608C3.2979 9.4522 3.35647 9.42941 3.35521 9.42543C3.26904 9.18506 3.25209 9.22423 3.09099 9.16055C3.05157 9.14469 2.95003 8.90604 2.86061 8.91454C2.88222 8.89376 2.91136 8.88775 2.93595 8.87275C2.89413 8.80975 2.85139 8.74682 2.8083 8.68476C2.79689 8.71555 2.78733 8.74862 2.77478 8.77844C2.7251 8.69616 2.6541 8.64549 2.5882 8.5962C2.54196 8.56625 2.50134 8.54044 2.46809 8.50798C2.41669 8.45775 2.46654 8.41761 2.42668 8.39928C2.41888 8.39575 2.39962 8.43639 2.37977 8.42257C2.2162 8.30849 2.18265 8.21636 2.04076 8.0778C1.9741 8.01291 1.86186 8.01751 1.79491 7.8919C1.78896 7.88032 1.73461 7.74248 1.60852 7.76626C1.60882 7.7257 1.60271 7.6992 1.60426 7.66627C1.38445 7.67581 1.51177 7.59254 1.35881 7.42723C1.2803 7.34037 0.953215 7.12884 0.839354 7.07264C0.771664 7.03798 0.740886 7.08732 0.728451 7.0817C0.6556 7.04922 0.685796 7.00204 0.619241 6.97023C0.552038 6.93818 0.440008 6.94386 0.378936 6.90136C0.376802 6.89987 0.374928 6.89837 0.373283 6.89687C0.337356 6.86657 0.4006 6.82897 0.316504 6.81171C0.298158 6.80872 0.317265 6.88297 0.246884 6.82396C0.240068 6.81301 0.117666 6.70371 0.089221 6.68661C0.158844 6.66203 0.366129 6.70449 0.4606 6.73809C0.480831 6.74596 0.495095 6.75112 0.506685 6.75552C1.18475 7.0035 2.04527 7.63039 2.82809 8.33788L2.85296 8.36377C3.50193 9.00428 4.05177 9.97075 4.18802 10.737C4.22396 10.8967 4.25608 11.0473 4.28523 11.1846C4.31428 11.3209 4.27612 11.4235 4.29213 11.5126C4.30822 11.6017 4.3444 11.5143 4.35926 11.5949C4.374 11.6755 4.35015 11.7427 4.36555 11.8174C4.4087 12.0266 4.45438 12.2359 4.50824 12.4359C4.5353 12.5358 4.56418 12.6329 4.5971 12.7216C4.61291 12.7644 4.63099 12.8071 4.64642 12.8371C4.65209 12.8657 4.70876 12.8905 4.60489 12.8341C4.55441 12.8106 4.46032 12.8236 4.42862 12.8465C4.39483 12.8668 4.39178 12.8769 4.39157 12.877C4.39358 12.877 4.41005 12.8521 4.42298 12.8249C4.46641 12.7333 4.45214 12.6206 4.48141 12.5123C4.49292 12.4689 4.54959 12.4827 4.55713 12.4508C4.63657 12.1096 4.64035 11.7689 4.71689 11.4132C4.73196 11.343 4.75814 11.2712 4.78538 11.2003C4.8156 11.1215 4.84703 11.0433 4.86618 10.9662C4.89625 10.8455 4.89239 10.7112 4.91894 10.6005C4.93317 10.5406 4.9845 10.52 4.99354 10.4991C5.0244 10.4271 4.96522 10.4388 4.97553 10.4005C5.00535 10.2927 5.08362 10.2589 5.11064 10.1577C5.12141 10.1182 5.07988 10.1099 5.09355 10.0502C5.11162 9.97449 5.13835 10.0144 5.1588 9.96347C5.16017 9.9604 5.12826 9.96002 5.13775 9.9319C5.17041 9.83512 5.20944 9.72333 5.25686 9.61646C5.29234 9.53451 5.32849 9.4529 5.36519 9.38294C5.52856 9.06999 5.74825 8.77881 5.9491 8.50193C6.00003 8.43186 5.95535 8.42871 5.96962 8.40484C6.0404 8.29009 6.1061 8.27979 6.18208 8.16001C6.1946 8.14039 6.21513 8.03165 6.28885 7.9729C6.32833 7.94122 6.39199 7.92437 6.42757 7.90062C6.46323 7.87693 6.43382 7.83633 6.47187 7.80117C6.54198 7.73825 6.54292 7.7812 6.64282 7.69196C6.65116 7.68471 6.66251 7.67277 6.67652 7.65775C6.73072 7.59875 6.82764 7.49621 6.92242 7.44199C7.11673 7.32876 7.37545 7.24712 7.60151 7.14545C7.67886 7.11049 7.75831 7.01979 7.87439 6.96762C7.93169 6.94164 8.01205 6.90795 8.08302 6.87443C8.11713 6.85859 8.15287 6.83888 8.15942 6.83485C8.16208 6.84036 8.15156 6.81729 8.10286 6.92679C8.07414 6.98383 8.09818 7.12399 8.13836 7.16464C8.17934 7.21717 8.19599 7.22018 8.20902 7.2291C8.19366 7.21958 8.1686 7.20705 8.14642 7.19694C8.08085 7.16756 8.09281 7.11564 8.08581 7.11015C8.03523 7.0734 8.03528 7.13784 7.99813 7.12036C7.94639 7.09618 7.91189 7.03541 7.86342 7.01309C7.83266 6.9989 7.81107 7.03758 7.80418 7.03521C7.5573 6.95101 7.33733 6.85743 7.09365 6.72173C7.08124 6.71477 7.06866 6.70775 7.0559 6.70066C6.33727 6.33193 5.51129 5.76944 5.1214 4.92363C4.83729 4.35816 4.59579 3.74713 4.45172 3.11974C4.4235 2.99664 4.47657 2.97955 4.44409 2.87417C4.41232 2.76957 4.27386 2.68546 4.38768 2.57254C4.36093 2.5744 4.34228 2.57807 4.31787 2.57947C4.31653 2.49553 4.30668 2.4138 4.29323 2.33202C4.26953 2.18788 4.23527 2.04653 4.21776 1.90568C4.19752 1.7425 4.19025 1.59759 4.18309 1.44755C4.17724 1.31435 4.22444 1.32338 4.15763 1.21212C4.15988 1.04384 4.16043 0.876351 4.16046 0.710531C4.16044 0.627961 4.16034 0.545426 4.15949 0.466279C4.1591 0.427787 4.15837 0.387552 4.15716 0.35513C4.15678 0.340456 4.15532 0.322826 4.15632 0.324622C4.15676 0.325657 4.15713 0.327829 4.1603 0.338796C4.16819 0.351048 4.15104 0.357557 4.22478 0.455113C4.23518 0.466553 4.297 0.540702 4.41272 0.562263C4.52793 0.588084 4.64514 0.523521 4.65973 0.509805C4.7262 0.461444 4.74122 0.427531 4.75311 0.409608C4.76566 0.387321 4.76861 0.377535 4.77053 0.372223C4.73681 0.498072 4.65152 0.796694 4.56926 0.999036C4.61523 1.11509 4.57265 1.2045 4.52029 1.31462C4.50336 1.34974 4.48532 1.38768 4.46905 1.42985C4.46096 1.45064 4.50257 1.43779 4.4807 1.5007C4.45324 1.57968 4.38811 1.6049 4.35016 1.74031C4.34049 1.77605 4.3172 2.05843 4.25509 2.14678C4.19372 2.23477 4.12923 2.37013 4.0658 2.46111C4.09321 2.45455 4.12095 2.44375 4.14858 2.43531C4.13517 2.48716 4.12123 2.53925 4.10718 2.59114C4.07769 2.58894 4.04817 2.5867 4.01863 2.58407C4.03385 2.6223 4.04854 2.6607 4.06363 2.69964C3.9025 2.71292 3.97205 2.6639 3.95384 2.81793C3.94423 2.89524 3.89859 2.94185 3.88325 3.01963C3.8778 3.04769 3.91089 3.08086 3.90408 3.11174C3.88678 3.18783 3.84928 3.12351 3.8312 3.16702C3.81303 3.21092 3.84556 3.30019 3.78275 3.36699C3.74427 3.29389 3.70461 3.34137 3.68977 3.40499C3.67869 3.45357 3.68347 3.51182 3.71689 3.53363C3.70412 3.56059 3.68978 3.58169 3.67782 3.61231C3.4855 3.48567 3.56374 3.69582 3.56398 3.76589C3.56464 3.83523 3.51069 3.80581 3.50636 3.81994C3.49367 3.8605 3.53007 3.84448 3.51776 3.87116C3.43566 4.04735 3.31793 4.19428 3.22218 4.36247C3.20836 4.38671 3.25065 4.38169 3.232 4.40856C3.2134 4.43522 3.16783 4.44629 3.14641 4.48911C3.14064 4.50055 3.16506 4.51924 3.15506 4.53687C2.94369 4.90433 2.6966 5.23386 2.40366 5.56376C2.37713 5.59345 2.39685 5.65326 2.34233 5.70948C2.28771 5.7659 2.17047 5.81612 2.09872 5.87924C2.08635 5.89015 2.09289 5.90969 2.09202 5.92827C2.09178 5.93816 2.08943 5.9477 2.08083 5.95522C1.99834 6.02727 1.90479 6.06484 1.81756 6.1385C1.67132 6.26191 1.54204 6.42046 1.38189 6.53316C1.3512 6.55497 1.32975 6.52355 1.28393 6.55169C1.20373 6.60129 1.26667 6.61766 1.25803 6.63572C1.22996 6.69419 1.16582 6.65426 1.13558 6.70788C1.13087 6.7162 1.16979 6.73906 1.16426 6.74512C1.07789 6.8354 1.00362 6.76609 0.942879 6.89617C0.816784 6.93326 0.947897 6.78525 0.94222 6.74833C0.927909 6.65916 0.771017 6.68394 0.695578 6.71489C0.629726 6.74237 0.662557 6.77575 0.642673 6.7941C0.540616 6.88836 0.392054 7.03654 0.298869 7.09132C0.242234 7.12488 0.315087 7.03213 0.280284 7.04303C0.245861 7.05363 0.254473 7.09336 0.203406 7.08784C0.153249 7.0815 0.0262036 7.04387 2.29159e-06 6.99474ZM5.04242 3.5032C4.79761 3.35941 4.66983 2.79302 4.63967 2.4878C4.63116 2.41511 4.63462 2.3434 4.63932 2.28014C4.6512 2.12471 4.67008 2.02265 4.52871 2.07738C4.53756 2.15223 4.54849 2.22302 4.56075 2.29192C4.59377 2.47635 4.63452 2.64696 4.6763 2.85575C4.68165 2.88508 4.70516 3.06658 4.71831 3.12843C4.72551 3.16345 4.69273 3.17285 4.70578 3.21996C4.70875 3.23043 4.76701 3.27447 4.77178 3.29549C4.78684 3.36637 4.78612 3.59535 4.79824 3.62403C4.83018 3.70282 4.87035 3.65529 4.89092 3.68659C4.96032 3.7917 4.88975 3.83041 4.95585 3.93573C4.96775 3.95456 5.05748 3.99732 5.08158 4.08311C5.09132 4.11824 5.08131 4.189 5.09343 4.21394C5.15962 4.35139 5.27066 4.4857 5.32153 4.61444C5.36316 4.71969 5.3022 4.71506 5.32109 4.77208C5.32648 4.78797 5.33686 4.80225 5.34944 4.81516C5.38396 4.85189 5.43446 4.87757 5.4509 4.90336C5.48607 4.95906 5.49591 5.04651 5.50695 5.06387C5.72537 5.41081 6.00337 5.6531 6.31262 5.8806C6.12268 5.69884 5.95434 5.4992 5.82038 5.28207C5.68962 5.19924 5.77399 5.22615 5.73415 5.13876C5.7046 5.06984 5.61514 5.10512 5.5722 5.01271C5.57225 5.01278 5.57229 5.01285 5.57233 5.01293C5.55032 4.96502 5.55361 4.83786 5.48292 4.75169C5.48292 4.75169 5.48292 4.75168 5.48291 4.75168C5.48029 4.74875 5.43198 4.7606 5.39519 4.68639C5.31198 4.51956 5.17324 4.26758 5.10651 4.06721C5.08702 4.0089 5.13889 4.00152 5.11922 3.93195C5.1047 3.88048 5.03919 3.83977 5.02141 3.7574C4.99971 3.65447 5.06151 3.58189 4.93216 3.54896C4.96875 3.531 5.00711 3.52183 5.04242 3.5032ZM3.76871 2.54398C3.75977 2.55682 3.5736 2.6958 3.71986 2.68873C3.8675 2.46168 3.9315 2.18036 4.04641 1.92511C3.89086 1.97554 3.89246 2.14354 3.83859 2.33104C3.83856 2.33112 3.83854 2.3312 3.83851 2.33128C3.83596 2.3401 3.81549 2.29258 3.80453 2.34391C3.7993 2.3687 3.81778 2.47811 3.76871 2.54398Z" fill="black"/>
</svg>
